<?xml version="1.0" encoding="iso-8859-1"?>
<!-- Generator: Adobe Illustrator 19.0.0, SVG Export Plug-In . SVG Version: 6.00 Build 0)  -->
<svg version="1.1" id="Capa_1" xmlns="http://www.w3.org/2000/svg" xmlns:xlink="http://www.w3.org/1999/xlink" x="0px" y="0px"
	 viewBox="0 0 512 512" style="enable-background:new 0 0 512 512;" xml:space="preserve">
<path style="fill:#FEC652;" d="M405.38,159.731l-46.13-63.73l-49.75,63.9l-53.25-63.9l-53.25,63.9l-49.75-63.9l-42.33,67.98
	l-60.67-67.98v280c0,22.09,95.54,40,206,40s206-17.91,206-40v-280L405.38,159.731z"/>
<polygon style="fill:#95E7EE;" points="462.25,176.001 502.25,236.001 462.25,296.001 422.25,236.001 "/>
<path style="fill:#FF4A70;" d="M256.25,196.001l40,60l-39.21,58.82c-0.53,0-1.05,0-1.58,0l-39.21-58.82L256.25,196.001z"/>
<polygon style="fill:#95E7EE;" points="50.25,176.001 90.25,236.001 50.25,296.001 10.25,236.001 "/>
<path d="M256,366.001c-5.52,0-10,4.48-10,10s4.48,10,10,10c5.52,0,10-4.48,10-10S261.52,366.001,256,366.001z"/>
<path d="M256,326.001c4.369,0,7.634-2.659,9.657-6.452l38.664-58.001c2.239-3.359,2.239-7.735,0-11.094l-40-60
	c-1.854-2.782-4.977-4.453-8.32-4.453s-6.466,1.671-8.32,4.453l-40,60c-2.239,3.358-2.24,7.734,0,11.094l38.849,58.278
	C248.691,323.525,251.571,326.001,256,326.001z M256,214.028l27.981,41.973L256,297.977L228.019,256L256,214.028z"/>
<path d="M472,172.973V96.001c0-4.148-2.561-7.866-6.437-9.344c-3.878-1.479-8.263-0.409-11.024,2.686l-48.598,54.454l-38.84-53.659
	c-1.844-2.549-4.78-4.08-7.926-4.135c-3.141-0.059-6.133,1.372-8.065,3.854l-42.122,54.103l-45.305-54.361
	c-1.9-2.28-4.714-3.599-7.682-3.599s-5.782,1.318-7.682,3.599l-45.305,54.361l-42.122-54.103c-2.008-2.578-5.134-4.004-8.414-3.843
	c-3.264,0.171-6.238,1.926-7.966,4.7l-35.271,56.645l-51.78-58.016c-2.763-3.096-7.148-4.165-11.024-2.686
	C42.561,88.135,40,91.852,40,96.001v76.973l-38.32,57.48c-2.24,3.358-2.24,7.735,0,11.094L40,299.028v76.973
	c0,14.587,16.984,22.195,22.566,24.695c11.301,5.063,27.157,9.574,47.125,13.409c39.944,7.671,91.904,11.896,146.309,11.896
	s106.365-4.225,146.309-11.896c19.969-3.835,35.824-8.347,47.125-13.409c5.582-2.5,22.566-10.108,22.566-24.695v-76.973l38.32-57.48
	c2.24-3.358,2.24-7.735,0-11.094L472,172.973z M358.709,112.653l33.599,46.418l-28.408,31.83c-0.077,0.086-0.152,0.174-0.227,0.263
	c-2.604,3.13-5.926,3.597-7.673,3.597s-5.069-0.467-7.678-3.603l-26.23-31.473L358.709,112.653z M153.914,113.452l35.994,46.233
	l-26.235,31.479c-2.604,3.13-5.926,3.597-7.673,3.597s-5.069-0.467-7.673-3.597c-0.074-0.089-0.149-0.176-0.226-0.263
	l-24.983-27.992L153.914,113.452z M50,194.028l27.981,41.973L50,277.973L22.019,236L50,194.028z M392.528,395.573
	c-37.927,6.725-86.413,10.428-136.528,10.428s-98.601-3.703-136.528-10.428C75.64,387.801,61.884,378.687,60,375.528v-16.167
	c9.002,4.392,21.118,8.309,36.537,11.854c31.162,7.164,73.455,12.128,119.088,13.978c0.138,0.005,0.275,0.008,0.412,0.008
	c5.336,0,9.767-4.215,9.984-9.595c0.224-5.519-4.068-10.174-9.587-10.397c-41.484-1.681-80.508-6.036-109.881-12.264
	C68.042,344.781,60.955,336.808,60,335.451v-36.423l38.32-57.48c2.24-3.358,2.24-7.735,0-11.094L60,172.973v-50.749l73.077,81.88
	c5.711,6.775,14.055,10.656,22.923,10.656c8.933,0,17.333-3.938,23.042-10.798l31.263-37.512c0.047-0.054,0.091-0.109,0.136-0.164
	L256,111.621l45.56,54.667c0.045,0.054,0.09,0.11,0.136,0.164l31.258,37.506c5.714,6.866,14.114,10.804,23.046,10.804
	c8.869,0,17.212-3.881,22.923-10.656l33.513-37.548c0.064-0.068,0.124-0.138,0.185-0.208L452,122.226v50.747l-38.32,57.48
	c-2.24,3.358-2.24,7.735,0,11.094l38.32,57.48v36.423c-0.955,1.357-8.042,9.33-46.554,17.494
	c-29.373,6.228-68.396,10.583-109.881,12.264c-5.519,0.224-9.811,4.879-9.587,10.397c0.218,5.38,4.648,9.595,9.984,9.595
	c0.137,0,0.274-0.003,0.412-0.008c45.633-1.85,87.926-6.813,119.088-13.978c15.419-3.545,27.535-7.462,36.537-11.854v16.167
	C450.116,378.687,436.36,387.801,392.528,395.573z M462,277.973L434.019,236L462,194.028l27.981,41.973L462,277.973z"/>
<g>
</g>
<g>
</g>
<g>
</g>
<g>
</g>
<g>
</g>
<g>
</g>
<g>
</g>
<g>
</g>
<g>
</g>
<g>
</g>
<g>
</g>
<g>
</g>
<g>
</g>
<g>
</g>
<g>
</g>
</svg>
